<svg width="16" height="16" viewBox="0 0 16 16" fill="none" xmlns="http://www.w3.org/2000/svg">
<path d="M10.6667 1.33325V3.99992M5.33334 1.33325V3.99992" stroke="#141B34" stroke-width="1.5" stroke-linecap="round" stroke-linejoin="round"/>
<path d="M8.66667 2.66675H7.33333C4.81917 2.66675 3.5621 2.66675 2.78105 3.44779C2 4.22885 2 5.48592 2 8.00008V9.33341C2 11.8475 2 13.1047 2.78105 13.8857C3.5621 14.6667 4.81917 14.6667 7.33333 14.6667H8.66667C11.1808 14.6667 12.4379 14.6667 13.2189 13.8857C14 13.1047 14 11.8475 14 9.33341V8.00008C14 5.48592 14 4.22885 13.2189 3.44779C12.4379 2.66675 11.1808 2.66675 8.66667 2.66675Z" stroke="#141B34" stroke-width="1.5" stroke-linecap="round" stroke-linejoin="round"/>
<path d="M2 6.66675H14" stroke="#141B34" stroke-width="1.5" stroke-linecap="round" stroke-linejoin="round"/>
<path d="M7.99701 9.33325H8.00301M7.99701 11.9999H8.00301M10.6607 9.33325H10.6667M5.33334 9.33325H5.33932M5.33334 11.9999H5.33932" stroke="#141B34" stroke-width="1.5" stroke-linecap="round" stroke-linejoin="round"/>
</svg>
