<svg width="19" height="18" viewBox="0 0 19 18" fill="none" xmlns="http://www.w3.org/2000/svg">
<path d="M2.75 12L6.10225 8.64773C6.35692 8.3931 6.70234 8.25 7.0625 8.25C7.42266 8.25 7.76808 8.3931 8.02273 8.64773L11 11.625M11 11.625L12.125 12.75M11 11.625L12.4773 10.1477C12.7319 9.8931 13.0774 9.75 13.4375 9.75C13.7976 9.75 14.1431 9.8931 14.3977 10.1477L16.25 12" stroke="#1A1A1A" stroke-width="1.5" stroke-linecap="round" stroke-linejoin="round"/>
<path d="M9.5 1.875C6.3277 1.875 4.74155 1.875 3.68957 2.77348C3.54018 2.90106 3.40106 3.04018 3.27348 3.18957C2.375 4.24155 2.375 5.8277 2.375 9C2.375 12.1723 2.375 13.7584 3.27348 14.8104C3.40106 14.9598 3.54018 15.0989 3.68957 15.2265C4.74155 16.125 6.3277 16.125 9.5 16.125C12.6723 16.125 14.2584 16.125 15.3104 15.2265C15.4598 15.0989 15.5989 14.9598 15.7265 14.8104C16.625 13.7584 16.625 12.1723 16.625 9" stroke="#1A1A1A" stroke-width="1.5" stroke-linecap="round" stroke-linejoin="round"/>
<path d="M12.125 4.125C12.5674 3.66987 13.7448 1.875 14.375 1.875C15.0052 1.875 16.1826 3.66987 16.625 4.125M14.375 2.25V7.125" stroke="#1A1A1A" stroke-width="1.5" stroke-linecap="round" stroke-linejoin="round"/>
</svg>
