<svg width="16" height="16" viewBox="0 0 16 16" fill="none" xmlns="http://www.w3.org/2000/svg">
<path d="M12.5 2.5H12.415V3.5H12.5C12.6326 3.5 12.7598 3.55268 12.8536 3.64645C12.9473 3.74021 13 3.86739 13 4V14C13 14.1326 12.9473 14.2598 12.8536 14.3536C12.7598 14.4473 12.6326 14.5 12.5 14.5H3.5C3.36739 14.5 3.24021 14.4473 3.14645 14.3536C3.05268 14.2598 3 14.1326 3 14V4C3 3.86739 3.05268 3.74021 3.14645 3.64645C3.24021 3.55268 3.36739 3.5 3.5 3.5H3.585V2.5H3.5C3.10218 2.5 2.72064 2.65804 2.43934 2.93934C2.15804 3.22064 2 3.60218 2 4V14C2 14.3978 2.15804 14.7794 2.43934 15.0607C2.72064 15.342 3.10218 15.5 3.5 15.5H12.5C12.8978 15.5 13.2794 15.342 13.5607 15.0607C13.842 14.7794 14 14.3978 14 14V4C14 3.60218 13.842 3.22064 13.5607 2.93934C13.2794 2.65804 12.8978 2.5 12.5 2.5Z" fill="#1A1A1A"/>
<path d="M11.5 1.5H10V0H6V1.5H4.5V4.5H11.5V1.5ZM10.5 3.5H5.5V2.5H7V1H9V2.5H10.5V3.5Z" fill="#1A1A1A"/>
<path d="M5 6.5H11V7.5H5V6.5ZM5 9H11V10H5V9ZM5 11.5H11V12.5H5V11.5Z" fill="#1A1A1A"/>
</svg>
